<?xml version="1.0" encoding="utf-8"?>
<svg id="Layer_1" data-name="Layer 1" xmlns="http://www.w3.org/2000/svg" viewBox="0 0 319.63 345.75"><title>researchgate</title><path d="M192.9,310q-7-7.54-14.7-17t-16-20.7Q154,261,145.89,248.43q-8.32-12.57-15.87-26.12a71.2,71.2,0,0,0,23.22-9.87,81.05,81.05,0,0,0,18.48-16.54,73.58,73.58,0,0,0,12.09-21,63.58,63.58,0,0,0,4.45-23.22q0-17.22-6.39-30a58.66,58.66,0,0,0-17.51-21.09,76.33,76.33,0,0,0-26.21-12.38A122.14,122.14,0,0,0,105.25,84Q87.07,84,72,84.65t-28.64.68q-12.39,0-24-.1T0,84.94v12l15.67,2.91a19.27,19.27,0,0,1,12.48,7.45q4.35,5.89,4.36,25V295.06q0,19.15-4.36,25.06a19.35,19.35,0,0,1-12.48,7.45L0,330.47v12q8.32-.18,21.86-.67t28.06-.49q7,0,14.7.2,7.74,0,14.9.19l13.35.39q6,.19,9.87.38v-12l-21.48-2.9q-8.31-1.17-12.57-7.26t-4.26-25.25V226.18q7.35.58,14.61.68t17.12.1q9.48,16.83,18.58,31.53T132,285.19q8.11,12,14.89,21.29,7,9.09,12.19,14.89a64.26,64.26,0,0,0,10.45,10.07,61.49,61.49,0,0,0,12.77,7.83A65.2,65.2,0,0,0,197.35,344a78.45,78.45,0,0,0,16.84,1.74,62.91,62.91,0,0,0,10.54-.87,35.93,35.93,0,0,0,8.61-2.42V331.82a40.63,40.63,0,0,1-21.86-6.67A92.21,92.21,0,0,1,192.9,310ZM94.23,208.38q-10.65,0-16.64-.29T64.43,207V103.51q7.16-.57,16.06-.77t17.41-.19A72.08,72.08,0,0,1,121.12,106a46.78,46.78,0,0,1,17.41,9.77A41,41,0,0,1,149.37,132a57.47,57.47,0,0,1,3.87,21.86,59.07,59.07,0,0,1-4.06,22.25,47.82,47.82,0,0,1-11.71,17.22,52.26,52.26,0,0,1-18.67,11,69.6,69.6,0,0,1-24.57,4.06Zm126-104.29c-.25-1-.48-2.19-.67-3.48s-.36-2.64-.49-4.06-.25-3.19-.38-4.94-.26-3.58-.39-5.51,0-4.32-.1-6.77-.1-5.1-.1-7.93,0-5.49.1-7.94.1-4.71.1-6.77.26-4,.39-5.71.25-3.32.38-4.74.29-2.77.49-4.06.42-2.45.67-3.48a17.75,17.75,0,0,1,.68-3.29c.32-1,.61-2.07.87-3.1a54.27,54.27,0,0,1,7.06-14A39.62,39.62,0,0,1,239.34,8.13,44.89,44.89,0,0,1,252.79,2a62.12,62.12,0,0,1,16.34-2,76.9,76.9,0,0,1,8.81.48,42.23,42.23,0,0,1,7.83,1.65,42.48,42.48,0,0,1,6.78,2.51q3.29,1.55,6.19,3.29A66.53,66.53,0,0,1,304,12.09a34.64,34.64,0,0,1,4.45,4.74,31.89,31.89,0,0,1,3.77,5,58,58,0,0,1,3,5.61,3.24,3.24,0,0,1,.29,1.65,2,2,0,0,1-.87,1.26l-15.09,6.19a2.53,2.53,0,0,1-1.64.19,2.39,2.39,0,0,1-1.26-1.35,62.33,62.33,0,0,0-4.93-7.84,23.94,23.94,0,0,0-5.91-5.51,33,33,0,0,0-7.35-3.2,34.06,34.06,0,0,0-9.29-1.06,27.1,27.1,0,0,0-9.19,1.26,37.5,37.5,0,0,0-7.25,3.77A30.29,30.29,0,0,0,246.4,29a31.68,31.68,0,0,0-4.35,8.32c-.13.65-.29,1.36-.49,2.13s-.42,1.55-.67,2.32a19,19,0,0,0-.58,3c-.13,1.1-.26,2.29-.39,3.58s-.07,2.74-.19,4.35-.2,3.33-.2,5.13-.19,3.87-.19,6.19V78.65c0,2.26.06,4.35.19,6.29s.07,3.51.2,5.13.19,3.06.19,4.35.26,2.48.39,3.58a14,14,0,0,0,.58,2.8c.25.91.48,1.75.67,2.52l.49,1.93a27.9,27.9,0,0,0,4.06,8,25.88,25.88,0,0,0,5.61,5.32,34.3,34.3,0,0,0,7.45,3.58,30.24,30.24,0,0,0,10,1.46,34.88,34.88,0,0,0,10-1.36,26.52,26.52,0,0,0,7.83-3.68,28.85,28.85,0,0,0,5.52-5.41A21,21,0,0,0,296,106c.39-1.16.77-2.48,1.16-4a44.4,44.4,0,0,0,1-4.93,47.12,47.12,0,0,0,.48-5.52c.06-2,.1-4.29.1-6.86a1,1,0,0,0-1.16-1.17H273.39a2,2,0,0,1-1.45-.48,2.28,2.28,0,0,1-.48-1.64V67.72a2.35,2.35,0,0,1,.48-1.55,1.77,1.77,0,0,1,1.45-.58h44.12a2,2,0,0,1,1.64.58,2.35,2.35,0,0,1,.48,1.55v11.8q0,4.65-.09,9c-.07,2.9-.23,5.71-.49,8.41s-.77,5.2-1.16,7.45a47.71,47.71,0,0,1-1.35,5.91A55.11,55.11,0,0,1,309.77,124a39.94,39.94,0,0,1-10.26,10.06,47.76,47.76,0,0,1-13.93,6.49,59.38,59.38,0,0,1-16.45,2.22,62.12,62.12,0,0,1-16.34-2,44.89,44.89,0,0,1-13.45-6.1,39.47,39.47,0,0,1-10.55-10.15,54.27,54.27,0,0,1-7.06-14c-.26-1-.55-2.07-.87-3.1a17.75,17.75,0,0,1-.68-3.29Z"/></svg>